<svg class="svg-icon" style="width: 1em;height: 1em;vertical-align: middle;fill: currentColor;overflow: hidden;" viewBox="0 0 1024 1024" version="1.1" xmlns="http://www.w3.org/2000/svg"><path d="M523.82 170.41L805.91 311.6c5.06 2.39 8.98 6.11 11.51 10.86l78.4 139.83c7.12 12.89 2.55 29.16-10.15 36.25-0.69 0.34-1.87 1.01-2.9 1.69l-61.63 30.51v157.79c0 11.48-7.44 20.66-17.27 25.05l-280.05 139.5c-7.63 4.45-16.61 4.08-23.73 0L218.01 712.57c-9.49-5.07-14.57-14.24-14.57-24.04V530.75l-63.99-31.86c-13.23-6.42-18.29-22.35-11.85-35.58l0.32-1.01 78.57-139.83c3.38-5.4 7.78-9.49 13.2-11.54l280.39-140.51c7.81-3.78 16.45-3.41 23.74-0.01z m-27.78 621.76V537.5l-43.52 77.54c-4.22 8.13-14.04 10.16-21.67 6.11l-0.17-0.34-174.41-87.06v138.51l239.77 119.91z m0-341.02V231.32L276.92 341.04l219.12 110.11z m31.84-219.83v219.49l219.1-109.77-219.1-109.72z m0 306.18v254.67l240.09-119.9V533.76L592.9 620.82v0.34c-7.78 4.05-17.27 2.03-21.67-6.11l-43.35-77.55z m250.26-176.82L533.65 483.32l57.9 103.3 244.84-122.27-58.25-103.67zM244.09 492.47l188.11 94.15 57.74-103.3-244.33-122.64-57.74 104.03 51.48 25.05c1.68 0.65 3.04 1.69 4.74 2.71z" fill="#717071" /></svg>