<svg xmlns="http://www.w3.org/2000/svg" viewBox="0 0 150 48.31"><defs><style>.class-1{fill:#fff;}.class-2{fill:#63cfe3;}.class-3{fill:#f5a800;}.class-4{fill:#ff6c0e;}</style></defs><title>Asset 2</title><g id="Layer_2" data-name="Layer 2"><g id="Layer_1-2" data-name="Layer 1"><path class="class-1" d="M16.53,15.25A16.53,16.53,0,0,0,0,31.78V48.31H8.26V31.78a8.27,8.27,0,0,1,16.53,0V48.31h8.26V31.78A16.53,16.53,0,0,0,16.53,15.25Z"/><rect class="class-1" x="139.83" y="15.25" width="8.26" height="33.05"/><path class="class-1" d="M121.4,15.25a16.4,16.4,0,0,0-8.26,2.22V0h-8.27V31.78A16.53,16.53,0,1,0,121.4,15.25Zm0,24.79a8.26,8.26,0,1,1,8.26-8.26A8.26,8.26,0,0,1,121.4,40Z"/><circle class="class-1" cx="143.96" cy="6.04" r="6.04"/><path class="class-1" d="M68,31.78H59.74A8.25,8.25,0,0,1,49,39.66l7.88-7.88,2.48-2.49,6.19-6.19a16.49,16.49,0,0,0-2.38-3,16.93,16.93,0,0,0-3-2.38A16.53,16.53,0,1,0,68,31.78ZM45.64,25.94a8.24,8.24,0,0,1,8.33-2L43.6,34.27A8.28,8.28,0,0,1,45.64,25.94Z"/><path class="class-2" d="M94.67,30.51H103A16.54,16.54,0,0,0,87.75,15.3v8.31A8.27,8.27,0,0,1,94.67,30.51Z"/><path class="class-3" d="M86.5,40v8.27A16.54,16.54,0,0,0,103,33.05H94.67A8.26,8.26,0,0,1,86.5,40Z"/><path class="class-4" d="M78.24,31.78H70A16.53,16.53,0,0,0,86.5,48.31V40A8.26,8.26,0,0,1,78.24,31.78Z"/><path class="class-1" d="M85.21,23.62V15.31A16.52,16.52,0,0,0,70,31.78h8.26A8.26,8.26,0,0,1,85.21,23.62Z"/></g></g></svg>